<?xml version="1.0" encoding="iso-8859-1"?>
<!-- Generator: Adobe Illustrator 19.0.0, SVG Export Plug-In . SVG Version: 6.00 Build 0)  -->
<svg version="1.1" id="Layer_1" xmlns="http://www.w3.org/2000/svg" xmlns:xlink="http://www.w3.org/1999/xlink" x="0px" y="0px"
	 viewBox="0 0 362.021 362.021" style="enable-background:new 0 0 362.021 362.021;" xml:space="preserve">
<g id="XMLID_1573_">
	<g id="XMLID_1574_">
		<path id="XMLID_1575_" style="fill:#FF628B;" d="M236.066,149.914c0,0,32.868-70.413,38.676-85.679
			c0.77-2.024,1.308-4.445,1.65-7.171c5.009-39.893-36.694-69.281-73.003-52.012l-20.531,9.765c-1.169,0.556-2.526,0.556-3.695,0
			l-20.531-9.765C122.323-12.217,80.62,17.171,85.629,57.064c0.342,2.726,0.88,5.147,1.65,7.171
			c5.808,15.266,38.676,85.679,38.676,85.679H236.066z"/>
		<path id="XMLID_1576_" style="fill:#CF476A;" d="M203.389,5.052l-20.531,9.765c-0.599,0.285-1.247,0.419-1.894,0.412v134.685
			h55.102c0,0,32.868-70.413,38.676-85.679c0.77-2.024,1.308-4.445,1.65-7.171C281.401,17.171,239.698-12.217,203.389,5.052z"/>
	</g>
	<g id="XMLID_1577_">
		<path id="XMLID_1578_" style="fill:#C1E8E6;" d="M318.392,340.41l-25.051-112.726c-0.046-0.209-0.093-0.418-0.14-0.626
			c-6.603-29.269-21.176-56.143-41.666-78.063l-10.078-10.781H120.563l-10.121,10.826c-19.694,21.067-34.025,46.7-40.849,74.72
			c-0.318,1.304-0.622,2.613-0.914,3.924L43.629,340.41c-2.465,11.091,5.975,21.611,17.336,21.611h240.091
			C312.417,362.021,320.857,351.5,318.392,340.41z"/>
		<path id="XMLID_1581_" style="fill:#A0CFF1;" d="M318.392,340.409l-25.05-112.726c-0.047-0.209-0.093-0.418-0.14-0.626
			c-6.604-29.269-21.176-56.144-41.666-78.063l-10.078-10.781h-60.494v223.808h120.092
			C312.417,362.021,320.856,351.5,318.392,340.409z"/>
	</g>
	<g id="XMLID_1582_">
		<circle id="XMLID_1583_" style="fill:#C1E8E6;" cx="181.01" cy="49.858" r="20.798"/>
		<path id="XMLID_1586_" style="fill:#A0CFF1;" d="M181.01,29.061c-0.016,0-0.031,0.002-0.047,0.002v41.592
			c0.016,0,0.031,0.002,0.047,0.002c11.486,0,20.798-9.312,20.798-20.798S192.497,29.061,181.01,29.061z"/>
	</g>
</g>
<g>
</g>
<g>
</g>
<g>
</g>
<g>
</g>
<g>
</g>
<g>
</g>
<g>
</g>
<g>
</g>
<g>
</g>
<g>
</g>
<g>
</g>
<g>
</g>
<g>
</g>
<g>
</g>
<g>
</g>
</svg>
