<?xml version="1.0" encoding="iso-8859-1"?>
<!-- Generator: Adobe Illustrator 19.0.0, SVG Export Plug-In . SVG Version: 6.00 Build 0)  -->
<svg version="1.1" id="Layer_1" xmlns="http://www.w3.org/2000/svg" xmlns:xlink="http://www.w3.org/1999/xlink" x="0px" y="0px"
	 viewBox="0 0 512 512" style="enable-background:new 0 0 512 512;" xml:space="preserve">
<path style="fill:#E7335B;" d="M368.916,240.113c-23.518-3.742-46.121-14.65-64.249-32.779c-18.129-18.13-29.036-40.73-32.779-64.25
	L78.403,363.157l35.219,35.22l35.221,35.22L368.916,240.113z"/>
<rect x="66.555" y="389.85" transform="matrix(-0.7071 -0.7071 0.7071 -0.7071 -137.4586 781.027)" style="fill:#F5AF47;" width="52.944" height="58.264"/>
<path style="fill:#3FA3A3;" d="M470.106,207.332c-45.689,45.688-119.753,45.689-165.44,0.002s-45.687-119.752,0.003-165.439
	c45.684-45.687,119.75-45.687,165.438-0.001C515.793,87.58,515.793,161.646,470.106,207.332z"/>
<g>
	<path style="fill:#871F4D;" d="M475.502,36.499C451.963,12.962,420.67,0,387.387,0c-33.285,0-64.578,12.963-88.113,36.5
		c-23.539,23.538-36.502,54.831-36.502,88.115c0,5.432,0.352,10.811,1.031,16.11L67.951,363.493l16.167,16.167l-41.199,41.2
		l18.717,18.718L0.001,501.212L10.789,512l61.634-61.634l18.718,18.718l41.199-41.201l16.166,16.166l57.325-50.399l-10.074-11.46
		l-46.579,40.952L88.855,362.82l148.413-168.806c8.122,17.581,19.262,33.514,33.233,47.485
		c13.971,13.971,29.904,25.11,47.485,33.233l-107.003,94.076l10.074,11.46l150.218-132.07c5.3,0.679,10.677,1.031,16.108,1.031
		c33.285,0,64.579-12.963,88.116-36.501c23.538-23.537,36.5-54.83,36.5-88.113C512.001,91.329,499.039,60.036,475.502,36.499z
		 M91.143,447.507L64.495,420.86l30.41-30.41l26.647,26.646L91.143,447.507z M330.644,263.603
		c-18.438-7.517-35.025-18.564-49.354-32.892c-14.328-14.327-25.375-30.915-32.893-49.355l19.284-21.934
		c3.956,13.677,10.251,26.568,18.684,38.185c0.062,0.085,0.122,0.17,0.184,0.254c1.486,2.037,3.035,4.037,4.653,5.993
		c0.117,0.141,0.237,0.28,0.355,0.421c0.647,0.776,1.304,1.544,1.972,2.307c0.235,0.27,0.473,0.537,0.711,0.805
		c0.589,0.66,1.185,1.314,1.789,1.965c0.24,0.258,0.478,0.519,0.721,0.775c0.828,0.877,1.666,1.747,2.522,2.602
		c0.855,0.855,1.725,1.694,2.602,2.522c0.257,0.243,0.519,0.483,0.778,0.723c0.647,0.601,1.299,1.195,1.957,1.781
		c0.272,0.241,0.542,0.483,0.816,0.722c0.752,0.659,1.512,1.307,2.276,1.947c0.152,0.126,0.301,0.255,0.453,0.381
		c1.946,1.608,3.935,3.149,5.961,4.628c0.103,0.075,0.206,0.15,0.31,0.224c11.609,8.42,24.489,14.708,38.153,18.66L330.644,263.603z
		 M464.712,201.938c-20.657,20.656-48.119,32.032-77.328,32.032c-4.947,0-9.84-0.335-14.663-0.977l-2.607-0.415
		c-17.115-2.723-33.045-9.339-46.852-19.362c-0.067-0.049-0.135-0.098-0.202-0.146c-1.092-0.796-2.171-1.615-3.237-2.454
		c-0.094-0.074-0.187-0.151-0.28-0.225c-0.978-0.775-1.943-1.57-2.896-2.38c-0.112-0.096-0.226-0.188-0.337-0.284
		c-0.966-0.828-1.918-1.678-2.859-2.543c-0.197-0.182-0.394-0.365-0.591-0.549c-0.946-0.882-1.883-1.776-2.801-2.695
		c-0.92-0.92-1.815-1.857-2.698-2.803c-0.181-0.194-0.363-0.39-0.543-0.585c-0.867-0.944-1.72-1.898-2.551-2.867
		c-0.09-0.105-0.177-0.212-0.267-0.316c-0.821-0.964-1.624-1.941-2.409-2.93c-0.066-0.084-0.135-0.167-0.201-0.251
		c-0.846-1.074-1.671-2.161-2.474-3.262c-0.04-0.055-0.079-0.109-0.118-0.164c-10.033-13.811-16.654-29.75-19.379-46.874
		l-0.421-2.647c-0.639-4.81-0.971-9.691-0.971-14.625c0-29.209,11.376-56.67,32.033-77.326
		c20.656-20.656,48.117-32.031,77.326-32.031s56.67,11.375,77.326,32.03c20.655,20.655,32.03,48.116,32.03,77.325
		S485.367,181.283,464.712,201.938z"/>
	<path style="fill:#871F4D;" d="M453.924,58.078c-17.773-17.773-41.404-27.562-66.538-27.562v15.258
		c21.058,0,40.857,8.202,55.748,23.093c14.891,14.892,23.092,34.689,23.092,55.746h15.258
		C481.485,99.48,471.697,75.851,453.924,58.078z"/>
</g>
<g>
</g>
<g>
</g>
<g>
</g>
<g>
</g>
<g>
</g>
<g>
</g>
<g>
</g>
<g>
</g>
<g>
</g>
<g>
</g>
<g>
</g>
<g>
</g>
<g>
</g>
<g>
</g>
<g>
</g>
</svg>
