<?xml version="1.0" encoding="iso-8859-1"?>
<!-- Generator: Adobe Illustrator 19.0.0, SVG Export Plug-In . SVG Version: 6.00 Build 0)  -->
<svg version="1.1" id="Layer_1" xmlns="http://www.w3.org/2000/svg" xmlns:xlink="http://www.w3.org/1999/xlink" x="0px" y="0px"
	 viewBox="0 0 512 512" style="enable-background:new 0 0 512 512;" xml:space="preserve">
<path style="fill:#6FD1E6;" d="M497.834,67.274c-32.772-32.76-86.097-32.769-118.876,0.003
	c-8.431,8.437-19.712,13.081-31.757,13.081c-12.048,0-23.326-4.644-31.763-13.084c-32.769-32.76-86.095-32.76-118.876,0.003
	c-8.434,8.437-19.711,13.081-31.761,13.081c-12.045,0-23.322-4.644-31.758-13.084c-32.778-32.76-86.101-32.76-118.876,0
	c-3.819,3.819-5.729,8.824-5.733,13.826H8.434v388.199h495.133V81.126C503.571,76.114,501.659,71.1,497.834,67.274z"/>
<path style="fill:#61B8CC;" d="M378.312,298.678c-7.133,7.137-16.693,11.068-26.918,11.068c-10.223,0-19.785-3.931-26.924-11.075
	c-37.751-37.743-99.181-37.741-136.943,0.003c-7.135,7.14-16.696,11.072-26.919,11.072s-19.784-3.931-26.923-11.078
	c-34.071-34.055-87.419-37.368-125.252-9.955v23.296c0.309-0.237,0.626-0.461,0.907-0.742c30.807-30.794,80.938-30.794,111.745,0
	c10.504,10.509,24.538,16.295,39.521,16.295c14.986,0,29.019-5.787,39.516-16.287c30.811-30.809,80.943-30.809,111.748-0.008
	c10.505,10.509,24.539,16.295,39.522,16.295c14.987,0,29.02-5.787,39.516-16.291c30.808-30.803,80.938-30.797,111.75-0.003
	c0.281,0.281,0.599,0.505,0.906,0.742v-23.296C465.73,261.293,412.383,264.607,378.312,298.678z M378.312,362.733
	c-7.133,7.137-16.693,11.067-26.918,11.067c-10.223,0-19.785-3.93-26.924-11.076c-37.751-37.743-99.181-37.74-136.943,0.005
	c-7.135,7.142-16.696,11.072-26.919,11.072s-19.784-3.93-26.923-11.078c-34.071-34.056-87.419-37.368-125.252-9.955v23.295
	c0.309-0.235,0.626-0.459,0.907-0.742c30.807-30.795,80.938-30.795,111.745,0c10.504,10.509,24.538,16.294,39.521,16.294
	c14.986,0,29.019-5.785,39.516-16.286c30.811-30.805,80.943-30.813,111.748-0.008c10.505,10.509,24.539,16.294,39.522,16.294
	c14.987,0,29.02-5.785,39.516-16.288c30.808-30.8,80.938-30.804,111.75-0.006c0.281,0.283,0.599,0.507,0.906,0.742v-23.295
	C465.73,325.348,412.383,328.663,378.312,362.733z M378.312,426.788c-7.133,7.136-16.693,11.068-26.918,11.068
	c-10.223,0-19.785-3.932-26.924-11.075c-37.751-37.744-99.181-37.741-136.943,0.003c-7.135,7.139-16.696,11.072-26.919,11.072
	s-19.784-3.932-26.923-11.079c-34.071-34.055-87.419-37.366-125.252-9.955v23.293c0.309-0.235,0.626-0.457,0.907-0.739
	c30.807-30.794,80.938-30.8,111.745,0c10.504,10.506,24.538,16.292,39.521,16.292c14.986,0,29.019-5.787,39.516-16.285
	c30.811-30.811,80.943-30.811,111.748-0.008c10.505,10.506,24.539,16.292,39.522,16.292c14.987,0,29.02-5.787,39.516-16.289
	c30.808-30.804,80.938-30.799,111.75-0.003c0.281,0.282,0.599,0.504,0.906,0.739v-23.293
	C465.73,389.401,412.383,392.717,378.312,426.788z M378.312,170.569c-7.133,7.137-16.693,11.069-26.918,11.069
	c-10.223,0-19.785-3.932-26.924-11.076c-37.751-37.744-99.181-37.741-136.943,0.005c-7.135,7.139-16.696,11.072-26.919,11.072
	s-19.784-3.932-26.923-11.081c-34.071-34.056-87.419-37.368-125.252-9.955v23.295c0.309-0.235,0.626-0.46,0.907-0.74
	c30.807-30.793,80.938-30.8,111.745,0c10.504,10.507,24.538,16.294,39.521,16.294c14.986,0,29.019-5.787,39.516-16.288
	c30.811-30.807,80.943-30.807,111.748-0.006c10.505,10.507,24.539,16.294,39.522,16.294c14.987,0,29.02-5.787,39.516-16.29
	c30.808-30.803,80.938-30.8,111.75-0.003c0.281,0.28,0.599,0.505,0.906,0.74v-23.295
	C465.73,133.182,412.383,136.498,378.312,170.569z M378.312,234.622c-7.133,7.137-16.693,11.068-26.918,11.068
	c-10.223,0-19.785-3.931-26.924-11.075c-37.751-37.744-99.181-37.741-136.943,0.005c-7.135,7.139-16.696,11.07-26.919,11.07
	s-19.784-3.931-26.923-11.078c-34.071-34.055-87.419-37.366-125.252-9.954v23.293c0.309-0.236,0.626-0.458,0.907-0.74
	c30.807-30.796,80.938-30.796,111.745,0c10.504,10.508,24.538,16.294,39.521,16.294c14.986,0,29.019-5.787,39.516-16.286
	c30.811-30.809,80.943-30.809,111.748-0.008c10.505,10.508,24.539,16.294,39.522,16.294c14.987,0,29.02-5.787,39.516-16.289
	c30.808-30.805,80.938-30.8,111.75-0.005c0.281,0.282,0.599,0.504,0.906,0.74v-23.293
	C465.73,197.236,412.383,200.554,378.312,234.622z M378.312,106.513c-7.133,7.137-16.693,11.069-26.918,11.069
	c-10.223,0-19.785-3.932-26.924-11.076c-37.751-37.743-99.181-37.741-136.943,0.004c-7.135,7.139-16.696,11.072-26.919,11.072
	s-19.784-3.932-26.923-11.078C99.612,72.449,46.266,69.135,8.434,96.549v23.293c0.309-0.237,0.626-0.46,0.907-0.742
	c30.807-30.791,80.938-30.798,111.745,0c10.504,10.51,24.538,16.295,39.521,16.295c14.986,0,29.019-5.785,39.516-16.286
	c30.811-30.811,80.943-30.811,111.748-0.009c10.505,10.51,24.539,16.295,39.522,16.295c14.987,0,29.02-5.785,39.516-16.291
	c30.808-30.802,80.938-30.797,111.75-0.003c0.281,0.282,0.599,0.505,0.906,0.742V96.549
	C465.73,69.129,412.383,72.444,378.312,106.513z"/>
<path style="fill:#FFFFFF;" d="M167.475,304.562c-48.812-48.82-48.812-128.238,0-177.049s128.237-48.811,177.048,0
	c48.816,48.811,48.816,128.238,0,177.051C295.712,353.378,216.288,353.37,167.475,304.562z M296.523,175.513
	c-22.344-22.342-58.704-22.342-81.05,0c-22.343,22.347-22.34,58.706,0.003,81.046c22.344,22.341,58.706,22.345,81.052,0
	C318.873,234.22,318.873,197.86,296.523,175.513z"/>
<g>
	<path style="fill:#FF5959;" d="M185.899,112.327c-6.496,4.394-12.678,9.437-18.423,15.186c-5.751,5.749-10.79,11.928-15.185,18.422
		l50.075,50.079c2.777-7.482,7.115-14.501,13.108-20.5c6.001-5.998,13.021-10.332,20.501-13.111L185.899,112.327z M359.713,286.139
		l-50.078-50.074c-2.776,7.477-7.112,14.5-13.105,20.496c-6.002,6.004-13.024,10.335-20.504,13.115l50.076,50.072
		c6.496-4.394,12.676-9.433,18.423-15.183C350.271,298.814,355.315,292.63,359.713,286.139z"/>
	<path style="fill:#FF5959;" d="M152.292,286.139c4.394,6.493,9.438,12.676,15.185,18.423c5.748,5.752,11.927,10.79,18.423,15.185
		l50.076-50.077c-7.48-2.772-14.5-7.106-20.498-13.109c-5.997-6-10.334-13.018-13.111-20.496L152.292,286.139z M326.1,112.327
		l-50.076,50.072c7.48,2.781,14.501,7.117,20.504,13.115c5.993,5.996,10.328,13.018,13.105,20.497l50.078-50.075
		c-4.398-6.493-9.437-12.673-15.188-18.428C338.78,121.762,332.597,116.721,326.1,112.327z"/>
	<path style="fill:#FF5959;" d="M132.494,425.554c14.634,0,26.493-11.854,26.493-26.482c0-14.636-11.859-26.496-26.493-26.496H72.77
		c-14.629,0-26.494,11.86-26.494,26.496c0,14.628,11.864,26.482,26.494,26.482H132.494z"/>
	<path style="fill:#FF5959;" d="M285.598,425.554c14.632,0,26.49-11.854,26.49-26.482c0-14.636-11.858-26.496-26.49-26.496h-59.725
		c-14.633,0-26.491,11.86-26.491,26.496c0,14.628,11.859,26.482,26.491,26.482H285.598z"/>
	<path style="fill:#FF5959;" d="M438.704,425.554c14.633,0,26.488-11.854,26.488-26.482c0-14.636-11.855-26.496-26.488-26.496
		H378.98c-14.633,0-26.495,11.86-26.495,26.496c0,14.628,11.862,26.482,26.495,26.482H438.704z"/>
</g>
<path style="fill:#1E252B;" d="M503.797,61.308c-17.444-17.438-40.671-27.041-65.4-27.041c-24.73,0-47.956,9.604-65.404,27.048
	c-6.837,6.841-15.997,10.609-25.792,10.609c-9.794,0-18.956-3.769-25.8-10.615c-17.442-17.437-40.665-27.039-65.395-27.039
	c-24.731,0-47.959,9.603-65.409,27.045c-6.838,6.841-15.999,10.609-25.795,10.609c-9.793,0-18.953-3.769-25.796-10.615
	c-17.446-17.436-40.672-27.039-65.4-27.039c-24.729,0-47.955,9.603-65.4,27.04C2.921,66.593,0.008,73.618,0,81.1v388.199
	c0,4.659,3.776,8.434,8.434,8.434h495.133c4.658,0,8.434-3.775,8.434-8.434V81.134C512.007,73.648,509.094,66.609,503.797,61.308z
	 M495.133,460.866H16.867v-53.36h22.012c3.784,15.19,17.542,26.482,33.892,26.482h59.724c16.35,0,30.105-11.292,33.889-26.482
	h25.601c3.784,15.19,17.539,26.482,33.889,26.482h59.725c16.348,0,30.103-11.292,33.887-26.482h25.601
	c3.785,15.19,17.542,26.482,33.893,26.482h59.724c16.348,0,30.102-11.292,33.885-26.482h22.545V460.866z M54.71,399.072
	c0-9.959,8.102-18.062,18.06-18.062h59.724c9.957,0,18.059,8.103,18.059,18.062c0,9.952-8.101,18.049-18.059,18.049H72.77
	C62.812,417.12,54.71,409.024,54.71,399.072z M207.815,399.072c0-9.959,8.101-18.062,18.058-18.062h59.725
	c9.956,0,18.057,8.103,18.057,18.062c0,9.952-8.101,18.049-18.057,18.049h-59.725C215.917,417.12,207.815,409.024,207.815,399.072z
	 M360.917,399.072c0-9.959,8.103-18.062,18.061-18.062h59.724c9.955,0,18.055,8.103,18.055,18.062c0,9.952-8.1,18.049-18.055,18.049
	h-59.724C369.02,417.12,360.917,409.024,360.917,399.072z M495.133,390.638h-22.545c-3.782-15.198-17.537-26.496-33.886-26.496
	h-59.724c-16.352,0-30.11,11.298-33.893,26.496h-25.6c-3.783-15.198-17.538-26.496-33.888-26.496h-59.725
	c-16.35,0-30.107,11.298-33.889,26.496h-25.6c-3.783-15.198-17.54-26.496-33.89-26.496H72.77c-16.351,0-30.109,11.298-33.892,26.496
	H16.867l0.001-309.532c0.002-2.974,1.16-5.769,3.261-7.868c14.258-14.253,33.25-22.101,53.475-22.101s39.217,7.849,53.474,22.098
	c10.027,10.031,23.424,15.556,37.723,15.556c14.303,0,27.7-5.523,37.722-15.549c14.262-14.255,33.255-22.104,53.482-22.104
	c20.225,0,39.214,7.848,53.467,22.098c10.028,10.03,23.426,15.555,37.727,15.555c14.303,0,27.7-5.523,37.72-15.55
	c14.258-14.256,33.25-22.106,53.475-22.106c20.226,0,39.217,7.849,53.474,22.1c2.107,2.108,3.265,4.907,3.263,7.892V390.638z
	 M256.001,82.47c-35.73,0-69.287,13.879-94.487,39.079c-52.098,52.097-52.098,136.871,0,188.978
	c25.203,25.201,58.76,39.079,94.493,39.079c35.73,0,69.284-13.878,94.483-39.077c25.203-25.202,39.082-58.759,39.082-94.49
	s-13.879-69.288-39.082-94.488C325.287,96.349,291.731,82.47,256.001,82.47z M338.56,133.476c3.655,3.655,7.031,7.516,10.132,11.548
	l-36.641,36.644c-2.674-4.348-5.866-8.42-9.565-12.118c-3.7-3.698-7.77-6.889-12.12-9.563l36.643-36.643
	C331.043,126.443,334.905,129.82,338.56,133.476z M304.852,216.039c0,13.072-5.074,25.344-14.288,34.556
	c-9.214,9.214-21.488,14.289-34.561,14.288c-13.075,0-25.351-5.075-34.565-14.288c-19.056-19.054-19.058-50.061-0.003-69.119
	c9.215-9.213,21.489-14.288,34.562-14.288c13.073,0,25.348,5.075,34.562,14.288C299.776,190.691,304.852,202.966,304.852,216.039z
	 M256.001,99.337c20.148,0,39.499,5.055,56.612,14.551l-38.861,38.861c-5.707-1.588-11.662-2.425-17.752-2.425
	c-6.089,0-12.044,0.838-17.751,2.424l-38.859-38.859C216.5,104.393,235.851,99.337,256.001,99.337z M173.44,133.476
	c3.656-3.656,7.517-7.032,11.551-10.133l36.642,36.642c-4.351,2.674-8.422,5.865-12.122,9.565c-3.732,3.733-6.904,7.814-9.55,12.13
	l-36.649-36.652C166.393,141.012,169.766,137.151,173.44,133.476z M153.867,272.635c-19.421-35.083-19.422-78.118-0.001-113.197
	l38.857,38.862c-3.227,11.59-3.227,23.889,0.001,35.478L153.867,272.635z M173.44,298.599c-3.675-3.675-7.047-7.537-10.128-11.553
	l36.651-36.651c2.646,4.316,5.818,8.396,9.551,12.129c3.698,3.697,7.769,6.887,12.118,9.561l-36.643,36.644
	C180.956,305.63,177.095,302.253,173.44,298.599z M256.005,332.737c-20.151,0-39.504-5.056-56.617-14.552l38.859-38.861
	c5.708,1.587,11.665,2.425,17.757,2.425h0.002c6.087,0,12.04-0.838,17.744-2.422l38.863,38.859
	C295.503,327.682,276.152,332.737,256.005,332.737z M338.56,298.601c-3.655,3.655-7.516,7.031-11.548,10.13l-36.644-36.641
	c4.352-2.675,8.423-5.867,12.124-9.567c3.698-3.697,6.889-7.766,9.561-12.114l36.642,36.639
	C345.594,291.083,342.217,294.944,338.56,298.601z M372.703,216.037c0,20.148-5.056,39.502-14.552,56.614l-38.857-38.854
	c1.589-5.709,2.427-11.666,2.427-17.759c-0.001-6.091-0.84-12.049-2.428-17.757l38.857-38.861
	C367.646,176.533,372.703,195.886,372.703,216.037z"/>
<g>
</g>
<g>
</g>
<g>
</g>
<g>
</g>
<g>
</g>
<g>
</g>
<g>
</g>
<g>
</g>
<g>
</g>
<g>
</g>
<g>
</g>
<g>
</g>
<g>
</g>
<g>
</g>
<g>
</g>
</svg>
